<mxfile host="app.diagrams.net" agent="Mozilla/5.0 (Windows NT 10.0; Win64; x64) AppleWebKit/537.36 (KHTML, like Gecko) Chrome/139.0.0.0 Safari/537.36" version="28.2.0">
  <diagram name="Page-1" id="ja6Jv6K6E00j63stfY1Q">
    <mxGraphModel dx="2062" dy="1176" grid="1" gridSize="10" guides="1" tooltips="1" connect="1" arrows="0" fold="1" page="0" pageScale="1" pageWidth="827" pageHeight="1169" math="0" shadow="0">
      <root>
        <mxCell id="0" />
        <mxCell id="1" parent="0" />
        <mxCell id="dmt541acUcm2cPtqfMdv-18" value="US-007: Dashboard Showing Reconciliation Metrics" style="swimlane;childLayout=stackLayout;resizeParent=1;resizeParentMax=0;horizontal=1;startSize=20;horizontalStack=0;html=1;" vertex="1" parent="1">
          <mxGeometry x="-1060" y="-390" width="700" height="420" as="geometry" />
        </mxCell>
        <mxCell id="dmt541acUcm2cPtqfMdv-19" value="System / IT" style="swimlane;startSize=20;horizontal=0;html=1;" vertex="1" parent="dmt541acUcm2cPtqfMdv-18">
          <mxGeometry y="20" width="700" height="210" as="geometry" />
        </mxCell>
        <mxCell id="dmt541acUcm2cPtqfMdv-15" style="edgeStyle=orthogonalEdgeStyle;rounded=0;orthogonalLoop=1;jettySize=auto;html=1;exitX=1;exitY=0.5;exitDx=0;exitDy=0;entryX=0;entryY=0.5;entryDx=0;entryDy=0;" edge="1" parent="dmt541acUcm2cPtqfMdv-19" source="dmt541acUcm2cPtqfMdv-3" target="dmt541acUcm2cPtqfMdv-13">
          <mxGeometry relative="1" as="geometry" />
        </mxCell>
        <mxCell id="dmt541acUcm2cPtqfMdv-3" value="Calculate Metrics" style="rounded=0;whiteSpace=wrap;html=1;" vertex="1" parent="dmt541acUcm2cPtqfMdv-19">
          <mxGeometry x="60" y="100" width="120" height="60" as="geometry" />
        </mxCell>
        <mxCell id="dmt541acUcm2cPtqfMdv-13" value="Update Dashboard in&amp;nbsp;Near Real-Time&amp;nbsp;" style="rounded=0;whiteSpace=wrap;html=1;" vertex="1" parent="dmt541acUcm2cPtqfMdv-19">
          <mxGeometry x="210" y="100" width="120" height="60" as="geometry" />
        </mxCell>
        <mxCell id="dmt541acUcm2cPtqfMdv-23" style="edgeStyle=orthogonalEdgeStyle;rounded=0;orthogonalLoop=1;jettySize=auto;html=1;exitX=0.5;exitY=1;exitDx=0;exitDy=0;entryX=0.5;entryY=0;entryDx=0;entryDy=0;" edge="1" parent="dmt541acUcm2cPtqfMdv-19" source="dmt541acUcm2cPtqfMdv-22" target="dmt541acUcm2cPtqfMdv-3">
          <mxGeometry relative="1" as="geometry" />
        </mxCell>
        <mxCell id="dmt541acUcm2cPtqfMdv-22" value="Daily Reconciliation Complete" style="ellipse;whiteSpace=wrap;html=1;" vertex="1" parent="dmt541acUcm2cPtqfMdv-19">
          <mxGeometry x="60" y="10" width="120" height="60" as="geometry" />
        </mxCell>
        <mxCell id="dmt541acUcm2cPtqfMdv-38" style="edgeStyle=orthogonalEdgeStyle;rounded=0;orthogonalLoop=1;jettySize=auto;html=1;exitX=1;exitY=0.5;exitDx=0;exitDy=0;" edge="1" parent="dmt541acUcm2cPtqfMdv-19" source="dmt541acUcm2cPtqfMdv-13">
          <mxGeometry relative="1" as="geometry">
            <mxPoint x="570" y="160" as="sourcePoint" />
            <mxPoint x="360" y="130" as="targetPoint" />
          </mxGeometry>
        </mxCell>
        <mxCell id="dmt541acUcm2cPtqfMdv-60" style="edgeStyle=orthogonalEdgeStyle;rounded=0;orthogonalLoop=1;jettySize=auto;html=1;exitX=1;exitY=0.5;exitDx=0;exitDy=0;entryX=0;entryY=0.5;entryDx=0;entryDy=0;" edge="1" parent="dmt541acUcm2cPtqfMdv-19" source="dmt541acUcm2cPtqfMdv-52" target="dmt541acUcm2cPtqfMdv-54">
          <mxGeometry relative="1" as="geometry" />
        </mxCell>
        <mxCell id="dmt541acUcm2cPtqfMdv-61" value="Yes" style="edgeLabel;html=1;align=center;verticalAlign=middle;resizable=0;points=[];" vertex="1" connectable="0" parent="dmt541acUcm2cPtqfMdv-60">
          <mxGeometry x="-0.3714" y="2" relative="1" as="geometry">
            <mxPoint as="offset" />
          </mxGeometry>
        </mxCell>
        <mxCell id="dmt541acUcm2cPtqfMdv-52" value="Check for Critical Issues" style="rhombus;whiteSpace=wrap;html=1;" vertex="1" parent="dmt541acUcm2cPtqfMdv-19">
          <mxGeometry x="360" y="90" width="130" height="80" as="geometry" />
        </mxCell>
        <mxCell id="dmt541acUcm2cPtqfMdv-54" value="Highlight Issue Visually" style="rounded=0;whiteSpace=wrap;html=1;" vertex="1" parent="dmt541acUcm2cPtqfMdv-19">
          <mxGeometry x="560" y="100" width="120" height="60" as="geometry" />
        </mxCell>
        <mxCell id="dmt541acUcm2cPtqfMdv-39" value="" style="endArrow=classic;html=1;rounded=0;exitX=0.5;exitY=1;exitDx=0;exitDy=0;" edge="1" parent="dmt541acUcm2cPtqfMdv-18" source="dmt541acUcm2cPtqfMdv-52" target="dmt541acUcm2cPtqfMdv-44">
          <mxGeometry width="50" height="50" relative="1" as="geometry">
            <mxPoint x="410" y="190" as="sourcePoint" />
            <mxPoint x="630" y="680" as="targetPoint" />
          </mxGeometry>
        </mxCell>
        <mxCell id="dmt541acUcm2cPtqfMdv-43" value="No" style="edgeLabel;html=1;align=center;verticalAlign=middle;resizable=0;points=[];" vertex="1" connectable="0" parent="dmt541acUcm2cPtqfMdv-39">
          <mxGeometry x="-0.2" y="1" relative="1" as="geometry">
            <mxPoint x="-1" y="-4" as="offset" />
          </mxGeometry>
        </mxCell>
        <mxCell id="dmt541acUcm2cPtqfMdv-20" value="Billing Manager" style="swimlane;startSize=20;horizontal=0;html=1;" vertex="1" parent="dmt541acUcm2cPtqfMdv-18">
          <mxGeometry y="230" width="700" height="190" as="geometry" />
        </mxCell>
        <mxCell id="dmt541acUcm2cPtqfMdv-62" style="edgeStyle=orthogonalEdgeStyle;rounded=0;orthogonalLoop=1;jettySize=auto;html=1;exitX=0.5;exitY=1;exitDx=0;exitDy=0;entryX=0.5;entryY=0;entryDx=0;entryDy=0;" edge="1" parent="dmt541acUcm2cPtqfMdv-20" source="dmt541acUcm2cPtqfMdv-44" target="dmt541acUcm2cPtqfMdv-50">
          <mxGeometry relative="1" as="geometry" />
        </mxCell>
        <mxCell id="dmt541acUcm2cPtqfMdv-44" value="View Dashboard &amp;amp; Metrics&amp;nbsp;Monitor Performance&amp;nbsp;Trends / Exceptions" style="rounded=0;whiteSpace=wrap;html=1;" vertex="1" parent="dmt541acUcm2cPtqfMdv-20">
          <mxGeometry x="365" y="20" width="120" height="60" as="geometry" />
        </mxCell>
        <mxCell id="dmt541acUcm2cPtqfMdv-50" value="Export Weekly / Monthly&amp;nbsp;Reports" style="rounded=0;whiteSpace=wrap;html=1;" vertex="1" parent="dmt541acUcm2cPtqfMdv-20">
          <mxGeometry x="365" y="110" width="120" height="60" as="geometry" />
        </mxCell>
        <mxCell id="dmt541acUcm2cPtqfMdv-58" style="edgeStyle=orthogonalEdgeStyle;rounded=0;orthogonalLoop=1;jettySize=auto;html=1;exitX=0.5;exitY=1;exitDx=0;exitDy=0;entryX=1;entryY=0.5;entryDx=0;entryDy=0;" edge="1" parent="dmt541acUcm2cPtqfMdv-18" source="dmt541acUcm2cPtqfMdv-54" target="dmt541acUcm2cPtqfMdv-44">
          <mxGeometry relative="1" as="geometry" />
        </mxCell>
      </root>
    </mxGraphModel>
  </diagram>
</mxfile>
